<svg class="custom-icon" xmlns="http://www.w3.org/2000/svg" viewBox="0 0 100 100" style="height:100px;width:100px"><circle class="outer-shape" cx="50" cy="50" r="48" fill="#a5acba"/><path class="inner-shape" d="M69.1 25.5H30.9a5.389 5.389 0 0 0-5.387 5.39v38.22A5.388 5.388 0 0 0 30.9 74.5h38.2a5.388 5.388 0 0 0 5.387-5.39V30.89A5.39 5.39 0 0 0 69.1 25.5zM49.973 40.592c5.178 0 9.376 4.2 9.376 9.381 0 5.18-4.198 9.38-9.376 9.38s-9.376-4.2-9.376-9.38 4.197-9.381 9.376-9.381zm18.783 26.215c0 1.083-.876 1.96-1.958 1.96H33.17a1.959 1.959 0 0 1-1.958-1.96v-20.53h4.254a15.073 15.073 0 0 0-.452 3.67c0 8.307 6.73 15.04 15.031 15.04s15.032-6.733 15.032-15.04c0-1.266-.158-2.494-.452-3.67h4.131v20.53zm.126-28.245a1.96 1.96 0 0 1-1.959 1.96h-5.562a1.959 1.959 0 0 1-1.958-1.96v-5.565a1.96 1.96 0 0 1 1.958-1.96h5.562a1.96 1.96 0 0 1 1.959 1.96v5.565z" fill="#f7f7f7"/></svg>